<svg xmlns="http://www.w3.org/2000/svg" width="627.006" height="468.85" viewBox="0 0 627.006 468.85">
  <g id="Shapes" transform="translate(-654.396 -153.924)">
    <path id="Path_15860" data-name="Path 15860" d="M0,0H21V21H0Z" transform="matrix(0.875, -0.485, 0.485, 0.875, 792.226, 604.407)" fill="#fbcfbc"/>
    <path id="Path_15840" data-name="Path 15840" d="M10.5,0,21,21H0Z" transform="translate(1129.924 165.667) rotate(-34)" fill="#fbcfbc"/>
    <path id="Path_15841" data-name="Path 15841" d="M7.5,0,15,15H0Z" transform="matrix(0.914, 0.407, -0.407, 0.914, 660.497, 214.598)" fill="#e1e2eb"/>
    <path id="Path_15842" data-name="Path 15842" d="M7.5,0,15,15H0Z" transform="matrix(0.914, 0.407, -0.407, 0.914, 1267.699, 485.598)" fill="#e1e2eb"/>
    <path id="Path_15861" data-name="Path 15861" d="M5,0A5,5,0,1,1,0,5,5,5,0,0,1,5,0Z" transform="translate(728 421)" fill="#c6b4fa"/>
    <path id="Path_15862" data-name="Path 15862" d="M5,0A5,5,0,1,1,0,5,5,5,0,0,1,5,0Z" transform="translate(1270 248)" fill="#c6b4fa"/>
  </g>
</svg>
